<svg xmlns="http://www.w3.org/2000/svg" xml:space="preserve" version="1.1"
  style="shape-rendering:geometricPrecision; text-rendering:geometricPrecision; image-rendering:optimizeQuality; fill-rule:evenodd; clip-rule:evenodd"
  viewBox="204 807 1752 503">
 <defs>
  <style type="text/css">
   .str0 {stroke:#0057D9;stroke-width:16.51;stroke-linecap:round;stroke-linejoin:round;stroke-miterlimit:1145.92}
   .fil1 {fill:none}
   .fil2 {fill:#0057D9;fill-rule:nonzero}
  </style>
 </defs>
 <g>
  <path class="fil1 str0" d="M354.39 1064.75l-132.61 227.86 132.61 -227.86zm140.87 0l132.35 227.43 -132.35 -227.43zm-211.02 42.29l139.64 -239.65 143.18 239.77m-203 112.49l-36.52 67.83 36.52 -67.83zm65.22 -154.14l-40.14 74.55 40.14 -74.55zm61.62 154.06l35.28 67.91 -35.28 -67.91zm-60.11 -151.64l36.04 72.27m-132.46 38.71l179.91 0"/>
 </g>
 <path class="fil2" d="M679.44 1225.08l43.26 -123 24.11 0 43.26 123 -20.81 0 -9.41 -27.57 -50.03 0 -9.57 27.57 -20.81 0zm36 -44.91l38.47 0 -21.8 -64.39 5.45 0 -22.12 64.39z"/>
 <polygon class="fil2" points="808.41,1225.08 808.41,1102.08 827.89,1102.08 827.89,1168.78 822.77,1166.8 878.41,1102.08 902.69,1102.08 853.48,1159.7 854.47,1145.83 904.67,1225.08 881.72,1225.08 845.72,1168.78 827.89,1189.59 827.89,1225.08 "/>
 <path class="fil2" d="M923.01 1225.08l0 -123 44.74 0c8.26,0 15.52,1.51 21.8,4.54 6.27,3.02 11.2,7.43 14.77,13.21 3.58,5.77 5.37,12.68 5.37,20.72 0,8.47 -2.12,15.74 -6.36,21.79 -4.23,6.06 -9.93,10.46 -17.08,13.21l28.39 49.53 -22.12 0 -30.22 -53.66 12.72 7.43 -32.53 0 0 46.23 -19.48 0zm19.48 -63.56l25.59 0c4.52,0 8.42,-0.88 11.73,-2.65 3.3,-1.76 5.86,-4.21 7.67,-7.34 1.82,-3.14 2.73,-6.86 2.73,-11.15 0,-4.29 -0.91,-8.01 -2.73,-11.14 -1.81,-3.14 -4.37,-5.56 -7.67,-7.27 -3.31,-1.71 -7.21,-2.56 -11.73,-2.56l-25.59 0 0 42.11z"/>
 <path class="fil2" d="M1094.57 1227.07c-8.91,0 -17.2,-1.6 -24.85,-4.79 -7.65,-3.19 -14.36,-7.65 -20.14,-13.38 -5.78,-5.72 -10.29,-12.44 -13.54,-20.14 -3.25,-7.71 -4.87,-16.13 -4.87,-25.26 0,-9.14 1.62,-17.59 4.87,-25.35 3.25,-7.76 7.73,-14.47 13.46,-20.14 5.72,-5.67 12.43,-10.07 20.14,-13.21 7.7,-3.14 16.02,-4.71 24.93,-4.71 9.03,0 17.37,1.57 25.02,4.71 7.65,3.14 14.36,7.57 20.14,13.29 5.78,5.73 10.26,12.44 13.46,20.15 3.19,7.7 4.78,16.12 4.78,25.26 0,9.13 -1.62,17.55 -4.87,25.26 -3.24,7.7 -7.73,14.42 -13.45,20.14 -5.73,5.73 -12.44,10.19 -20.15,13.38 -7.7,3.19 -16.01,4.79 -24.93,4.79zm0 -17.84c6.39,0 12.25,-1.15 17.59,-3.46 5.33,-2.32 9.99,-5.53 13.95,-9.66 3.96,-4.13 7.04,-8.97 9.24,-14.53 2.21,-5.56 3.31,-11.59 3.31,-18.08 0,-6.5 -1.1,-12.5 -3.31,-18 -2.2,-5.5 -5.28,-10.35 -9.24,-14.53 -3.96,-4.18 -8.62,-7.43 -13.95,-9.74 -5.34,-2.31 -11.2,-3.47 -17.59,-3.47 -6.38,0 -12.24,1.16 -17.58,3.47 -5.34,2.31 -9.99,5.56 -13.96,9.74 -3.96,4.18 -7.01,9.03 -9.16,14.53 -2.15,5.5 -3.22,11.5 -3.22,18 0,6.49 1.07,12.52 3.22,18.08 2.15,5.56 5.2,10.4 9.16,14.53 3.97,4.13 8.65,7.34 14.04,9.66 5.39,2.31 11.23,3.46 17.5,3.46z"/>
 <polygon class="fil2" points="1183.58,1225.08 1183.58,1102.08 1199.27,1102.08 1268.28,1197.34 1260.85,1198.5 1260.85,1102.08 1280.17,1102.08 1280.17,1225.08 1264.48,1225.08 1195.96,1129.15 1203.06,1127.83 1203.06,1225.08 "/>
 <path class="fil2" d="M1338.3 1225.08l0 -123 44.75 0c8.25,0 15.52,1.51 21.79,4.54 6.28,3.02 11.2,7.43 14.78,13.21 3.58,5.77 5.37,12.68 5.37,20.72 0,8.47 -2.12,15.74 -6.36,21.79 -4.24,6.06 -9.94,10.46 -17.09,13.21l28.4 49.53 -22.13 0 -30.21 -53.66 12.71 7.43 -32.52 0 0 46.23 -19.49 0zm19.49 -63.56l25.59 0c4.51,0 8.42,-0.88 11.72,-2.65 3.3,-1.76 5.86,-4.21 7.68,-7.34 1.82,-3.14 2.72,-6.86 2.72,-11.15 0,-4.29 -0.9,-8.01 -2.72,-11.14 -1.82,-3.14 -4.38,-5.56 -7.68,-7.27 -3.3,-1.71 -7.21,-2.56 -11.72,-2.56l-25.59 0 0 42.11z"/>
 <polygon class="fil2" points="1450.1,1225.08 1450.1,1102.08 1531.17,1102.08 1531.17,1119.41 1469.41,1119.41 1469.58,1154.75 1527.86,1154.75 1527.86,1172.08 1469.41,1172.08 1469.58,1207.75 1531.17,1207.75 1531.17,1225.08 "/>
 <path class="fil2" d="M1542.24 1225.08l43.26 -123 24.11 0 43.26 123 -20.81 0 -9.41 -27.57 -50.03 0 -9.57 27.57 -20.81 0zm36 -44.91l38.47 0 -21.8 -64.39 5.45 0 -22.12 64.39z"/>
 <polygon class="fil2" points="1671.21,1225.08 1671.21,1102.08 1690.52,1102.08 1690.69,1207.75 1743.86,1207.75 1743.86,1225.08 "/>
 <polygon class="fil2" points="1775.9,1225.08 1775.9,1119.41 1743.21,1119.41 1743.21,1102.08 1827.42,1102.08 1827.42,1119.41 1795.22,1119.41 1795.22,1225.08 "/>
 <polygon class="fil2" points="1876.96,1225.08 1876.96,1169.61 1834.86,1102.08 1856.82,1102.08 1890.5,1156.73 1882.74,1156.73 1916.26,1102.08 1938.22,1102.08 1896.28,1169.61 1896.28,1225.08 "/>
</svg>
